# xmcd
#
# Track frame offsets:
#	183
#	13213
#	29318
#	48843
#	62013
#	75493
#	98615
#	110748
#	124213
#	138660
#	154185
#	169343
#	183585
#	199265
#	211860
#	229405
#
# Disc length: 3276 seconds
#
# Revision: 0
# Processed by: cddbd v1.4PL0 Copyright (c) Steve Scherf et al.
# Submitted via: dBpowerAMP V4.0
#
DISCID=e10cca10
DTITLE=Kenny Rogers - Kenny Rogers ~ Music for Pleasure
DYEAR=1900
DGENRE=Country
TTITLE0=Rubty Don't Take Your Love To Town
TTITLE1=Green Green Grass Of Home
TTITLE2=Sweet Music Man
TTITLE3=Love Or Something Like It
TTITLE4=You and Me
TTITLE5=King Of Oak Street
TTITLE6=Reuben James
TTITLE7=Puttin' In Overtime At Home
TTITLE8=Daytime Freinds
TTITLE9=Let It Be Me
TTITLE10=Buried Treasures
TTITLE11=The Son Of Hickory Holler's Tramp
TTITLE12=I Wasn't Man Enough
TTITLE13=Mother Country Music
TTITLE14=Lay Down Beside Me
TTITLE15=Lucille
EXTD=
EXTT0=
EXTT1=
EXTT2=
EXTT3=
EXTT4=
EXTT5=
EXTT6=
EXTT7=
EXTT8=
EXTT9=
EXTT10=
EXTT11=
EXTT12=
EXTT13=
EXTT14=
EXTT15=
PLAYORDER=
